<?xml version="1.0" encoding="UTF-8"?>
<svg id="Capa_1" xmlns="http://www.w3.org/2000/svg" version="1.1" viewBox="0 0 1080 500">
  <!-- Generator: Adobe Illustrator 29.2.1, SVG Export Plug-In . SVG Version: 2.1.0 Build 116)  -->
  <defs>
    <style>
      .st0 {
        fill: #fff;
      }
    </style>
  </defs>
  <path class="st0" d="M140.44,235c3.73,4.06,6.7,8.73,8.89,14s3.37,10.92,3.53,16.92c-.16,6.01-1.34,11.65-3.53,16.93-2.19,5.28-5.16,9.94-8.89,14,.16,0,.24.08.24.24-4.22,4.38-9.13,7.92-14.73,10.59s-11.73,4.02-18.38,4.02h-40.18c-16.27,0-29.47-13.19-29.47-29.47h0s70.13,0,70.13,0c4.06-.65,7.43-2.47,10.11-5.48,2.68-3,4.02-6.53,4.02-10.59v-.24c0-4.06-1.3-7.51-3.9-10.35-2.6-2.84-5.85-4.66-9.74-5.48h-35.55c-6.66,0-12.79-1.34-18.39-4.02s-10.51-6.21-14.73-10.59v-.24c-3.74-4.06-6.7-8.72-8.89-14-2.19-5.28-3.29-10.92-3.29-16.93s1.1-11.65,3.29-16.92c2.19-5.28,5.15-9.94,8.89-14v-.25c4.22-4.38,9.13-7.91,14.73-10.59,5.6-2.68,11.73-4.02,18.39-4.02h40.18c16.27,0,29.47,13.19,29.47,29.47h0s-70.13,0-70.13,0c-4.06.65-7.43,2.48-10.11,5.48-2.68,3.01-4.02,6.54-4.02,10.59v.24c0,4.06,1.3,7.55,3.9,10.47,2.59,2.92,5.76,4.79,9.5,5.6h35.8c6.65,0,12.78,1.3,18.38,3.9,5.6,2.6,10.51,6.09,14.73,10.47,0,.17-.08.25-.24.25Z"/>
  <path class="st0" d="M286.8,250.83c0,8.44-1.58,16.36-4.75,23.74-3.17,7.39-7.51,13.84-13.03,19.36-5.52,5.52-11.97,9.86-19.36,13.03-7.39,3.17-15.3,4.75-23.74,4.75-10.72,0-20.62-2.51-29.71-7.55v8.04c0,17.22-13.96,31.17-31.17,31.17h0v-92.54c0-8.44,1.58-16.35,4.75-23.74,3.17-7.38,7.51-13.84,13.03-19.36,5.52-5.52,11.97-9.86,19.36-13.03,7.39-3.17,15.3-4.75,23.74-4.75s16.35,1.58,23.74,4.75c7.39,3.17,13.84,7.51,19.36,13.03,5.52,5.52,9.86,11.98,13.03,19.36,3.16,7.39,4.75,15.3,4.75,23.74ZM255.63,250.83c0-4.06-.77-7.92-2.31-11.57-1.54-3.65-3.65-6.82-6.33-9.5-2.68-2.68-5.84-4.79-9.5-6.33-3.65-1.54-7.51-2.31-11.57-2.31s-7.92.77-11.57,2.31c-3.65,1.54-6.82,3.65-9.5,6.33-2.68,2.68-4.79,5.85-6.33,9.5-1.55,3.65-2.31,7.51-2.31,11.57s.77,7.91,2.31,11.57c1.54,3.65,3.65,6.82,6.33,9.5,2.68,2.68,5.84,4.79,9.5,6.33,3.65,1.54,7.51,2.31,11.57,2.31s7.91-.77,11.57-2.31c3.65-1.54,6.82-3.65,9.5-6.33,2.68-2.68,4.79-5.84,6.33-9.5,1.54-3.65,2.31-7.51,2.31-11.57Z"/>
  <path class="st0" d="M397.11,299.05c-5.2,4.06-10.96,7.18-17.29,9.38-6.33,2.19-12.99,3.29-19.97,3.29-8.44,0-16.36-1.58-23.74-4.75-7.39-3.17-13.84-7.51-19.36-13.03-5.52-5.52-9.86-11.97-13.03-19.36-3.16-7.38-4.75-15.3-4.75-23.74s1.58-16.35,4.75-23.74c3.17-7.38,7.51-13.84,13.03-19.36,5.52-5.52,11.97-9.86,19.36-13.03,7.39-3.17,15.3-4.75,23.74-4.75s16.35,1.58,23.74,4.75c7.39,3.17,13.84,7.51,19.36,13.03,5.52,5.52,9.86,11.98,13.03,19.36,3.16,7.39,4.75,15.3,4.75,23.74,0,2.6-.16,5.11-.49,7.55-.33,2.44-.73,4.79-1.22,7.06h-84.99c2.59,4.55,6.17,8.2,10.71,10.96,4.54,2.76,9.58,4.14,15.1,4.14,3.25,0,6.33-.49,9.25-1.46.03,0,.06-.02.09-.03,5.25-1.77,11.03-.4,14.56,3.87l13.36,16.13ZM359.85,221.12c-5.2,0-9.9,1.22-14.13,3.65-4.22,2.44-7.71,5.6-10.47,9.5h49.19c-2.76-3.9-6.25-7.06-10.47-9.5-4.22-2.43-8.93-3.65-14.12-3.65Z"/>
  <path class="st0" d="M520.53,240.28c-1.7-3.24-3.86-6-6.45-8.28-2.6-2.27-5.6-4.1-9.01-5.48-3.41-1.38-6.98-2.07-10.71-2.07-4.06,0-7.92.77-11.57,2.31-3.65,1.54-6.82,3.65-9.5,6.33-2.68,2.68-4.79,5.85-6.33,9.5-1.55,3.65-2.31,7.51-2.31,11.57s.77,7.91,2.31,11.57c1.54,3.65,3.65,6.82,6.33,9.5,2.68,2.68,5.84,4.79,9.5,6.33,3.65,1.54,7.51,2.31,11.57,2.31,3.73,0,7.31-.69,10.71-2.07,3.41-1.38,6.41-3.2,9.01-5.48,2.59-2.27,4.75-4.99,6.45-8.16l28.98,12.05c-3.33,6.98-7.76,13.03-13.27,18.14-5.52,5.11-11.85,9.17-18.99,12.17-7.15,3.01-14.77,4.51-22.89,4.51s-16.36-1.58-23.74-4.75c-7.39-3.17-13.84-7.51-19.36-13.03-5.52-5.52-9.86-11.97-13.03-19.36-3.16-7.38-4.75-15.3-4.75-23.74s1.58-16.35,4.75-23.74c3.17-7.38,7.51-13.84,13.03-19.36,5.52-5.52,11.97-9.86,19.36-13.03,7.39-3.17,15.3-4.75,23.74-4.75s15.74,1.5,22.89,4.51c7.14,3.01,13.47,7.06,18.99,12.18,5.52,5.11,9.94,11.16,13.27,18.14l-28.98,12.18"/>
  <path class="st0" d="M566.84,189.95h0c17.22,0,31.17,13.96,31.17,31.17v29.71c0,4.06.77,7.91,2.31,11.57,1.54,3.65,3.65,6.82,6.33,9.5,2.68,2.68,5.84,4.79,9.5,6.33s7.51,2.31,11.57,2.31,7.92-.77,11.57-2.31,6.82-3.65,9.5-6.33c2.68-2.68,4.79-5.84,6.33-9.5,1.54-3.65,2.31-7.51,2.31-11.57v-29.71c0-17.22,13.96-31.17,31.17-31.17h0v60.88c0,8.44-1.59,16.36-4.75,23.74-3.17,7.39-7.51,13.84-13.03,19.36s-11.97,9.86-19.36,13.03c-7.39,3.17-15.31,4.75-23.74,4.75s-16.36-1.58-23.74-4.75c-7.39-3.17-13.84-7.51-19.36-13.03-5.52-5.52-9.86-11.97-13.03-19.36-3.16-7.38-4.75-15.3-4.75-23.74v-60.88Z"/>
  <path class="st0" d="M734.79,310.98h-31.17v-153.42h31.17v153.42Z"/>
  <path class="st0" d="M751.14,188.67h0c17.22,0,31.17,13.96,31.17,31.17v29.71c0,4.06.77,7.91,2.31,11.57,1.54,3.65,3.65,6.82,6.33,9.5s5.84,4.79,9.5,6.33c3.65,1.54,7.51,2.31,11.57,2.31s7.92-.77,11.57-2.31c3.65-1.54,6.82-3.65,9.5-6.33,2.68-2.68,4.79-5.84,6.33-9.5,1.54-3.65,2.31-7.51,2.31-11.57v-29.71c0-17.22,13.96-31.17,31.17-31.17h0v60.88c0,8.44-1.58,16.36-4.75,23.74-3.17,7.39-7.51,13.84-13.03,19.36s-11.98,9.86-19.36,13.03c-7.39,3.17-15.3,4.75-23.74,4.75s-16.36-1.58-23.74-4.75c-7.39-3.17-13.84-7.51-19.36-13.03-5.52-5.52-9.86-11.97-13.03-19.36-3.17-7.38-4.75-15.3-4.75-23.74v-60.88Z"/>
  <path class="st0" d="M1020.37,235.68c-.81-4.22-2.8-7.71-5.97-10.47-3.16-2.76-6.93-4.14-11.32-4.14s-8.57,1.62-11.8,4.61c-3.34,3.09-5.17,6.91-5.5,11.46v74.76h-31.17v-73.79c-.17-4.7-1.91-8.72-5.23-12.05s-7.34-4.94-11.81-4.99-8.39,1.33-11.7,4.14c-3.25,2.76-5.2,6.25-5.84,10.47v45.05c0,17.22-13.96,31.17-31.17,31.17h0v-73.79c0-6.66,1.3-12.91,3.9-18.75,2.6-5.84,6.09-10.92,10.47-15.22,4.38-4.3,9.5-7.71,15.34-10.23,5.85-2.51,12.09-3.77,18.75-3.77s12.3,1.18,17.9,3.53c5.6,2.35,10.59,5.56,14.98,9.62,4.22-4.06,9.17-7.26,14.85-9.62,5.68-2.35,11.69-3.53,18.02-3.53,6.66,0,12.91,1.26,18.75,3.77,5.84,2.52,10.96,5.93,15.34,10.23,4.38,4.3,7.87,9.38,10.47,15.22,2.59,5.85,3.9,12.1,3.9,18.75v73.79h0c-17.22,0-31.17-13.96-31.17-31.17v-45.05Z"/>
</svg>