<?xml version="1.0" encoding="UTF-8"?>
<svg id="Capa_1" xmlns="http://www.w3.org/2000/svg" version="1.1" viewBox="0 0 1080 1080">
  <!-- Generator: Adobe Illustrator 29.2.1, SVG Export Plug-In . SVG Version: 2.1.0 Build 116)  -->
  <defs>
    <style>
      .st0 {
        fill: #fff;
      }
    </style>
  </defs>
  <path class="st0" d="M498.99,728.79l-200.39,127.94c-38.31-35.02-61.65-72.37-79.99-123.6-1.32-3.66-2.57-7.36-3.76-11.11-3-9.39-5.58-19-7.76-28.81-10-45.12-12.33-80.53-4.07-123.19"/>
  <path class="st0" d="M371.63,625.98"/>
  <path class="st0" d="M603.81,688.71l4.1,74.53.65,13.14,7.65,157.48c-9.67,3.11-8.78,5.8-18.9,8.04-46.13,10.22-92.14,10.15-135.65,1.31-3.86-.77-7.7-1.62-11.52-2.55-50.22-12.09-96.73-35.93-135.73-69.09"/>
  <path class="st0" d="M847.01,701.15c-11.87,57.22-38.92,97.71-77.66,140.66-2.63,2.91-5.3,5.78-8.04,8.61-33.72,34.78-75.44,62.38-123.13,79.63l-7.18-147.58-.65-13.14-4.72-97.01-.63-13.07-1.17-66.11,70.15,34.28,12.02,5.78,141,67.94Z"/>
  <path class="st0" d="M757.95,391.21c39.89,37.19,62.78,76.72,80.25,131.55,1.19,3.73,2.32,7.5,3.38,11.31,1.62,5.79,3.1,11.67,4.41,17.62,9.43,42.59,10.1,85.07,3.2,125.57l-131.96-63.59-12-5.78-84.72-40.82-11.64-5.6-59.03-29.97"/>
  <path class="st0" d="M628.45,456.85"/>
  <path class="st0" d="M970.3,605.24c.27,6.08.39,12.18.39,18.33,0,237.66-192.67,430.33-430.33,430.33S110.02,861.22,110.02,623.56c0-6.15.13-12.25.39-18.33,4.16,99.52,42.14,190.31,102.73,261.18,72.39,92.27,184.91,151.54,311.28,151.54,8.59,0,17.11-.27,25.56-.82,206.49-13.17,369.88-184.81,369.88-394.62s-177.04-395.44-395.44-395.44c-43.99,0-86.28,7.18-125.79,20.44-.13.1-.27.21-.41.31,0,0-64.4,47.62-37.61,80.05,0,0,44.41,33.13,81.06-62.74,0,0,11.28,31.02-19.74,66.26,0,0-28.2,39.47-107.14,59.21,0,0-31.02,9.87-35.24,28.2,0,0,1.41,16.92,21.15,14.1,0,0-19.74,12.69-43.7,12.69,0,0-38.06,0-50.75,22.56,0,0-8.46-21.15,0-43.7,0,0,49.34,2.82,49.34-46.52,0,0,69.08-14.1,50.75-63.44,0,0-8.46-2.82-25.38,21.15,0,0-33.83-5.64-43.7,23.97,0,0-2.52-.99-6.53-1.86-7.63-1.69-20.61-2.97-31.69,3.74-6.8,4.1-12.87,11.21-16.56,23.05,0,0-12.01-2.95-23.02,1.97-7.15,3.19-13.87,9.69-16.65,22.44,0,0-18.33-64.85,36.65-107.14,0,0-11.28,31.02,2.82,32.42,0,0,6.85-1.31,17.27-10.07,6.89-5.77,15.32-14.79,24.36-28.84,5.71-8.85,11.64-19.71,17.58-32.99,0,0,35.24-81.77,94.46-128.29,0,0,112.78-109.96,253.76-95.86,0,0-176.22,18.33-260.81,150.85,0,0,33.83-14.1,53.57-38.06,0,0,5.64,11.28,0,22.56,0,0,31.02-11.28,47.93-28.2,0,0,5.64,12.69,1.41,18.33,0,0,29.61-11.28,45.11-28.2,0,0,3.59,9.02-2.71,26.21,21.57-3.34,43.66-5.06,66.15-5.06,237.66,0,430.33,192.67,430.33,430.33,0,6.15-.13,12.25-.39,18.33Z"/>
  <path class="st0" d="M741.15,375.43l-121.45,82.91-10.64,7.26-79.17,54.07-10.66,7.26-67.88,46.36-4.51-82.5-.71-12.97-4.17-76.53c24.98-27.14,47.72-61.43,65.31-104.86,32.11-2.91,63.78-.61,94.15,6.3,3.71.81,7.42,1.75,11.1,2.73,47.67,12.7,91.74,36.82,128.63,69.98Z"/>
  <path class="st0" d="M434.66,667.27l-64.77-33.76-11.51-5.99-150.71-78.63c3.72-16.03,8.6-31.67,14.62-46.84,40.8-4.48,126.36-21.98,197.88-89.94l3.34,60.02.71,12.97,5.31,95.55.73,13.1.25-.15,4.15,73.67Z"/>
  <path class="st0" d="M528.82,560.64s-71.85,70.62,0,141.25c0,0,73.82-68.69,0-141.25Z"/>
</svg>